<svg width="18" height="19" viewBox="0 0 18 19" fill="none" xmlns="http://www.w3.org/2000/svg">
<path opacity="0.4" d="M9 17C13.1421 17 16.5 13.6421 16.5 9.5C16.5 5.35786 13.1421 2 9 2C4.85786 2 1.5 5.35786 1.5 9.5C1.5 13.6421 4.85786 17 9 17Z" fill="#C8A800"/>
<path d="M11.7825 12.4476C11.685 12.4476 11.5875 12.4251 11.4975 12.3651L9.17251 10.9776C8.59501 10.6326 8.16751 9.87507 8.16751 9.20757V6.13257C8.16751 5.82507 8.42251 5.57007 8.73001 5.57007C9.03751 5.57007 9.29251 5.82507 9.29251 6.13257V9.20757C9.29251 9.47757 9.51751 9.87507 9.75001 10.0101L12.075 11.3976C12.345 11.5551 12.4275 11.9001 12.27 12.1701C12.1575 12.3501 11.97 12.4476 11.7825 12.4476Z" fill="#C8A800"/>
</svg>
