<svg width="75" height="75" viewBox="0 0 75 75" fill="none" xmlns="http://www.w3.org/2000/svg">
<path fill-rule="evenodd" clip-rule="evenodd" d="M37.5 0C58.207 0 75 16.793 75 37.5C75 58.207 58.207 75 37.5 75C16.793 75 0 58.207 0 37.5C0 16.793 16.793 0 37.5 0ZM29.7127 49.6803L20.5317 40.4918C18.9676 38.9267 18.9673 36.3746 20.5317 34.8099C22.0965 33.2454 24.66 33.2552 26.2133 34.8099L32.6858 41.2874L48.7872 25.1861C50.352 23.6213 52.9044 23.6213 54.4688 25.1861C56.0336 26.7505 56.0313 29.3051 54.4688 30.8677L35.5221 49.8144C33.9595 51.377 31.4049 51.3792 29.8404 49.8144C29.7965 49.7705 29.7541 49.7258 29.7127 49.6803Z" fill="white"/>
</svg>
