<svg width="27" height="27" viewBox="0 0 27 27" fill="none" xmlns="http://www.w3.org/2000/svg">
<rect width="26.7027" height="26.7027" rx="5" fill="#006063"/>
<path d="M19.4297 9.36719H16.7344V8.28906H9.99609V9.36719H7.30078C6.91953 9.36719 6.5539 9.51864 6.28432 9.78822C6.01473 10.0578 5.86328 10.4234 5.86328 10.8047V18.2617C5.86328 18.643 6.01473 19.0086 6.28432 19.2782C6.5539 19.5478 6.91953 19.6992 7.30078 19.6992H19.4297C19.8109 19.6992 20.1766 19.5478 20.4462 19.2782C20.7157 19.0086 20.8672 18.643 20.8672 18.2617V10.8047C20.8672 10.4234 20.7157 10.0578 20.4462 9.78822C20.1766 9.51864 19.8109 9.36719 19.4297 9.36719ZM13.3649 18.8906C10.9628 18.8906 9.00925 16.9356 9.00925 14.5336C9.00925 12.1315 10.9628 10.1765 13.3649 10.1765C15.7669 10.1765 17.7219 12.1315 17.7219 14.5336C17.7219 16.9356 15.7669 18.8892 13.3649 18.8892V18.8906ZM13.3649 11.6133C12.9813 11.6133 12.6016 11.6889 12.2472 11.8357C11.8929 11.9826 11.5709 12.1977 11.2998 12.469C11.0286 12.7402 10.8135 13.0622 10.6668 13.4166C10.52 13.7709 10.4445 14.1507 10.4446 14.5343C10.4446 14.9178 10.5202 15.2976 10.6671 15.6519C10.8139 16.0063 11.029 16.3282 11.3003 16.5994C11.5715 16.8706 11.8935 17.0856 12.2479 17.2324C12.6023 17.3791 12.982 17.4546 13.3656 17.4546C14.1403 17.4545 14.8832 17.1466 15.4309 16.5988C15.9787 16.0509 16.2863 15.3079 16.2862 14.5332C16.2861 13.7585 15.9783 13.0156 15.4304 12.4678C14.8826 11.9201 14.1396 11.6125 13.3649 11.6126V11.6133Z" fill="white"/>
</svg>
