<svg width="154" height="46" viewBox="0 0 154 46" fill="none" xmlns="http://www.w3.org/2000/svg">
<g clip-path="url(#clip0_1_2)">
<path d="M40.0583 26.3115L26.0794 12.3531C25.462 11.7371 24.8418 11.1168 23.6056 11.1168H11.2307C10.903 11.1161 10.5888 10.9857 10.3569 10.754C10.125 10.5224 9.99424 10.2084 9.99312 9.88061V1.23692C9.99242 0.557635 9.4369 0 8.75339 0H0.104073C0.104073 0 0.0970411 0 0.0970411 0.00632877V1.23692C0.0970411 2.45486 0.712338 3.08633 1.33607 3.70655L16.1813 18.5299C16.7994 19.1473 17.4203 19.7676 18.6551 19.7676H31.0271C31.7071 19.7676 32.2655 20.3217 32.2655 21.0038V35.8272C32.2655 36.5064 31.7099 37.0641 31.0271 37.0641L7.16627 37.0577C6.3801 37.0577 5.98701 38.0049 6.54254 38.5591L13.7011 45.7078H23.5993C24.8193 45.7078 25.4557 45.0875 26.0731 44.4708L40.052 30.5131C40.6077 29.9552 40.9198 29.1998 40.9198 28.4123C40.9198 27.6248 40.6077 26.8694 40.052 26.3115H40.0583Z" fill="#006063"/>
<path d="M87.5803 18.0539C81.94 18.0539 78.6399 21.8321 78.6399 27.7601C78.6399 33.6873 81.9435 37.4283 87.5803 37.4283C91.81 37.4283 95.0764 35.2414 95.9652 31.8337C96.0025 31.6846 95.8527 31.5384 95.7071 31.5384H92.5153C92.3655 31.5384 92.2938 31.6502 92.2186 31.7964C91.3642 33.6128 90.1793 34.5375 87.5803 34.5375C84.0552 34.5375 82.3492 32.2423 82.3492 29.0926C82.3492 29.0181 82.4238 28.9091 82.5327 28.9091H96.2992C96.3334 28.9099 96.3674 28.9037 96.3992 28.891C96.4309 28.8783 96.4597 28.8592 96.4839 28.835C96.5081 28.8108 96.5271 28.782 96.5399 28.7503C96.5526 28.7185 96.5588 28.6845 96.558 28.6503V27.7629C96.558 22.131 93.4421 18.0567 87.5803 18.0567V18.0539ZM92.4781 26.277H82.608C82.5738 26.2779 82.5397 26.2718 82.5079 26.2591C82.4762 26.2464 82.4473 26.2274 82.4231 26.2032C82.3989 26.179 82.3798 26.1501 82.3671 26.1183C82.3544 26.0865 82.3483 26.0525 82.3492 26.0183C82.3865 23.4235 83.7591 20.9067 87.543 20.9067C91.3269 20.9067 92.6996 23.427 92.7368 26.019C92.7377 26.0532 92.7316 26.0872 92.7189 26.1189C92.7062 26.1507 92.6871 26.1795 92.6629 26.2037C92.6387 26.2278 92.6098 26.2468 92.578 26.2594C92.5463 26.272 92.5122 26.278 92.4781 26.277ZM108.506 26.2806L105.427 25.7975C103.609 25.5021 102.495 24.91 102.495 23.5022C102.495 22.0192 103.534 20.8357 106.504 20.8357C109.842 20.8357 111.105 22.4271 111.105 24.0971C111.105 24.2462 111.217 24.3552 111.364 24.3552H114.368C114.402 24.3561 114.436 24.35 114.468 24.3374C114.5 24.3247 114.528 24.3058 114.553 24.2816C114.577 24.2575 114.596 24.2287 114.609 24.197C114.622 24.1653 114.628 24.1313 114.627 24.0971C114.627 20.1311 111.064 18.0567 106.5 18.0567C103.234 18.0567 98.9707 19.6143 98.9707 23.5022C98.9707 26.5393 100.935 28.0589 103.868 28.5048L108.173 29.1714C110.362 29.5047 111.698 30.0961 111.698 31.7662C111.698 33.6191 110.175 34.5818 107.022 34.5818C103.683 34.5818 102.161 32.878 102.161 31.3949C102.162 31.3607 102.156 31.3267 102.143 31.295C102.13 31.2632 102.111 31.2344 102.087 31.2102C102.063 31.1861 102.034 31.1671 102.002 31.1545C101.971 31.1419 101.936 31.1359 101.902 31.1368H98.8982C98.8641 31.1361 98.8302 31.1422 98.7985 31.1549C98.7668 31.1676 98.738 31.1866 98.7138 31.2107C98.6896 31.2348 98.6706 31.2635 98.6578 31.2952C98.645 31.3269 98.6388 31.3608 98.6395 31.3949C98.6395 34.8026 101.681 37.4354 107.024 37.4354C111.701 37.4354 115.114 35.6563 115.114 31.5074C115.114 27.3586 111.81 26.8009 108.51 26.2834L108.506 26.2806ZM127.094 26.2806L124.015 25.7975C122.197 25.5021 121.083 24.91 121.083 23.5022C121.083 22.0192 122.122 20.8357 125.092 20.8357C128.43 20.8357 129.693 22.4271 129.693 24.0971C129.693 24.2462 129.805 24.3552 129.951 24.3552H132.955C133.106 24.3552 133.215 24.2434 133.215 24.0971C133.215 20.1311 129.653 18.0567 125.088 18.0567C121.822 18.0567 117.558 19.6143 117.558 23.5022C117.558 26.5393 119.523 28.0589 122.455 28.5048L126.761 29.1714C128.951 29.5047 130.285 30.0961 130.285 31.7662C130.285 33.6191 128.763 34.5818 125.61 34.5818C122.272 34.5818 120.749 32.878 120.749 31.3949C120.75 31.3608 120.744 31.3268 120.731 31.2951C120.718 31.2634 120.699 31.2346 120.675 31.2105C120.651 31.1863 120.622 31.1674 120.59 31.1547C120.559 31.1421 120.525 31.136 120.491 31.1368H117.487C117.452 31.1361 117.418 31.1422 117.387 31.1549C117.355 31.1676 117.326 31.1866 117.302 31.2107C117.278 31.2348 117.259 31.2635 117.246 31.2952C117.233 31.3269 117.227 31.3608 117.228 31.3949C117.228 34.8026 120.269 37.4354 125.612 37.4354C130.289 37.4354 133.702 35.6563 133.702 31.5074C133.702 27.3586 130.399 26.8009 127.097 26.2834L127.094 26.2806ZM65.4655 23.6851C65.2447 23.5733 65.2447 23.3897 65.4655 23.2772C67.8402 22.2027 68.8788 20.2028 68.8788 18.0539C68.8415 14.7207 66.8381 11.126 61.273 11.126H49.8461C49.8119 11.1252 49.7779 11.1314 49.7462 11.1441C49.7145 11.1569 49.6857 11.1759 49.6616 11.2001C49.6375 11.2243 49.6185 11.2531 49.6059 11.2849C49.5932 11.3166 49.5871 11.3506 49.588 11.3848V36.7983C49.588 36.9481 49.7005 37.0571 49.8468 37.0571H61.5353C66.9541 37.0571 69.4371 33.4996 69.4371 30.0174C69.4371 27.4598 68.6193 25.0521 65.4655 23.6816V23.6851ZM53.073 14.2004C53.073 14.0513 53.1856 13.9423 53.3318 13.9423H60.6029C63.9409 13.9423 65.3508 15.6834 65.3508 18.4617C65.3508 21.2401 63.7574 22.24 60.9749 22.24H53.3304C53.2962 22.2409 53.2622 22.2348 53.2304 22.2221C53.1986 22.2094 53.1697 22.1903 53.1455 22.1661C53.1213 22.1419 53.1023 22.1131 53.0896 22.0813C53.0769 22.0495 53.0708 22.0154 53.0716 21.9812V14.2004H53.073ZM60.9742 34.1704H53.2938C53.2596 34.1713 53.2256 34.1652 53.1938 34.1525C53.162 34.1398 53.1331 34.1208 53.1089 34.0966C53.0847 34.0724 53.0657 34.0435 53.053 34.0117C53.0403 33.9799 53.0342 33.9459 53.0351 33.9117V25.3889C53.0351 25.2398 53.1476 25.1308 53.2938 25.1308H61.2329C64.3868 25.1308 65.9465 26.7594 65.9465 29.7248C65.9465 32.6902 63.9438 34.1704 60.9742 34.1704ZM75.8946 11.126H72.4039C72.3699 11.1259 72.3362 11.1325 72.3048 11.1455C72.2733 11.1585 72.2448 11.1775 72.2207 11.2016C72.1967 11.2256 72.1776 11.2542 72.1646 11.2856C72.1517 11.3171 72.145 11.3507 72.1451 11.3848V15.0913C72.1451 15.2341 72.2605 15.3501 72.4039 15.3501H75.8946C75.9632 15.3501 76.029 15.3228 76.0776 15.2743C76.1261 15.2258 76.1533 15.1599 76.1533 15.0913V11.3848C76.1533 11.3161 76.1261 11.2503 76.0776 11.2018C76.029 11.1532 75.9632 11.126 75.8946 11.126ZM75.6688 18.4245H72.662C72.5933 18.4245 72.5275 18.4517 72.479 18.5002C72.4305 18.5488 72.4032 18.6146 72.4032 18.6832V36.8025C72.4032 36.9452 72.5192 37.0606 72.662 37.0606H75.6688C75.7028 37.0607 75.7365 37.0541 75.7679 37.0411C75.7994 37.0282 75.8279 37.0092 75.852 36.9853C75.8761 36.9613 75.8953 36.9328 75.9084 36.9015C75.9215 36.8701 75.9282 36.8365 75.9283 36.8025V18.6832C75.9283 18.6492 75.9216 18.6155 75.9086 18.584C75.8955 18.5526 75.8764 18.524 75.8523 18.5C75.8282 18.476 75.7996 18.4569 75.7681 18.444C75.7366 18.431 75.7029 18.4244 75.6688 18.4245ZM144.645 18.0539C139.006 18.0539 135.704 21.8321 135.704 27.7601C135.704 33.6873 139.008 37.4283 144.645 37.4283C148.875 37.4283 152.141 35.2414 153.03 31.8337C153.068 31.6846 152.918 31.5384 152.771 31.5384H149.58C149.431 31.5384 149.358 31.6502 149.284 31.7964C148.429 33.6128 147.243 34.5375 144.645 34.5375C141.12 34.5375 139.414 32.2423 139.414 29.0926C139.414 29.0181 139.489 28.9091 139.598 28.9091H153.364C153.398 28.9099 153.432 28.9037 153.464 28.891C153.496 28.8783 153.525 28.8592 153.549 28.835C153.573 28.8108 153.592 28.782 153.605 28.7503C153.618 28.7185 153.624 28.6845 153.623 28.6503V27.7629C153.623 22.131 150.507 18.0567 144.645 18.0567V18.0539ZM149.543 26.277H139.672C139.638 26.2779 139.604 26.2718 139.572 26.2591C139.541 26.2464 139.512 26.2274 139.488 26.2032C139.464 26.1789 139.445 26.1501 139.432 26.1183C139.419 26.0865 139.413 26.0525 139.414 26.0183C139.452 23.4235 140.824 20.9067 144.608 20.9067C148.392 20.9067 149.764 23.427 149.802 26.019C149.802 26.1681 149.689 26.277 149.543 26.277Z" fill="black"/>
</g>
<defs>
<clipPath id="clip0_1_2">
<rect width="154" height="45.7078" fill="white"/>
</clipPath>
</defs>
</svg>
