<svg width="115" height="34" viewBox="0 0 115 34" fill="none" xmlns="http://www.w3.org/2000/svg">
<g clip-path="url(#clip0_25_28)">
<path d="M29.9137 19.572L19.4749 9.18889C19.0139 8.73068 18.5507 8.26932 17.6276 8.26932H8.38661C8.14185 8.26877 7.90726 8.17175 7.73409 7.99944C7.56091 7.82714 7.46324 7.59356 7.46241 7.34975V0.920092C7.46189 0.4148 7.04705 0 6.53663 0H0.0777304C0.0777304 0 0.0724792 0 0.0724792 0.00470769V0.920092C0.0724792 1.82606 0.531954 2.29578 0.99773 2.75714L12.0834 13.7836C12.545 14.2429 13.0087 14.7042 13.9308 14.7042H23.1696C23.6774 14.7042 24.0944 15.1164 24.0944 15.6238V26.6502C24.0944 27.1555 23.6795 27.5703 23.1696 27.5703L5.35145 27.5656C4.76437 27.5656 4.47084 28.2702 4.88568 28.6824L10.2313 34H17.6228C18.5339 34 19.0091 33.5386 19.4702 33.0799L29.9089 22.6974C30.324 22.2824 30.557 21.7204 30.557 21.1347C30.557 20.5489 30.324 19.987 29.9089 19.572H29.9137Z" fill="#006063"/>
<path d="M65.4008 13.4295C61.1889 13.4295 58.7245 16.24 58.7245 20.6495C58.7245 25.0585 61.1915 27.8413 65.4008 27.8413C68.5594 27.8413 70.9986 26.2145 71.6623 23.6797C71.6901 23.5688 71.5783 23.46 71.4696 23.46H69.0861C68.9742 23.46 68.9207 23.5432 68.8645 23.652C68.2265 25.0031 67.3417 25.6909 65.4008 25.6909C62.7684 25.6909 61.4945 23.9836 61.4945 21.6407C61.4945 21.5853 61.5502 21.5042 61.6316 21.5042H71.9117C71.9373 21.5048 71.9627 21.5002 71.9864 21.4907C72.0101 21.4812 72.0316 21.4671 72.0497 21.4491C72.0677 21.4311 72.0819 21.4097 72.0914 21.386C72.1009 21.3624 72.1055 21.3371 72.105 21.3117V20.6516C72.105 16.4623 69.7782 13.4316 65.4008 13.4316V13.4295ZM69.0583 19.5463H61.6878C61.6622 19.547 61.6368 19.5424 61.613 19.533C61.5893 19.5235 61.5677 19.5094 61.5497 19.4914C61.5316 19.4734 61.5174 19.4519 61.5079 19.4283C61.4984 19.4046 61.4939 19.3793 61.4945 19.3538C61.5223 17.4237 62.5474 15.5516 65.373 15.5516C68.1986 15.5516 69.2237 17.4263 69.2515 19.3544C69.2522 19.3798 69.2476 19.4051 69.2381 19.4287C69.2286 19.4523 69.2144 19.4738 69.1963 19.4917C69.1782 19.5097 69.1567 19.5238 69.1329 19.5332C69.1092 19.5426 69.0838 19.547 69.0583 19.5463ZM81.0272 19.5489L78.7282 19.1896C77.3703 18.9699 76.5385 18.5295 76.5385 17.4823C76.5385 16.3791 77.3146 15.4988 79.5322 15.4988C82.0249 15.4988 82.968 16.6825 82.968 17.9248C82.968 18.0357 83.0515 18.1168 83.1612 18.1168H85.4045C85.4301 18.1174 85.4555 18.1129 85.4792 18.1035C85.5029 18.0941 85.5245 18.08 85.5426 18.062C85.5607 18.0441 85.575 18.0227 85.5846 17.9991C85.5941 17.9755 85.5988 17.9502 85.5983 17.9248C85.5983 14.9746 82.9375 13.4316 79.5296 13.4316C77.0904 13.4316 73.9066 14.5902 73.9066 17.4823C73.9066 19.7414 75.3738 20.8718 77.5635 21.2034L80.7783 21.6993C82.4135 21.9472 83.4107 22.3872 83.4107 23.6295C83.4107 25.0078 82.2738 25.7239 79.9187 25.7239C77.4259 25.7239 76.2891 24.4564 76.2891 23.3533C76.2897 23.3278 76.2852 23.3026 76.2757 23.2789C76.2662 23.2553 76.252 23.2339 76.2339 23.2159C76.2158 23.1979 76.1942 23.1838 76.1705 23.1744C76.1468 23.1651 76.1214 23.1606 76.0958 23.1613H73.8526C73.8271 23.1607 73.8017 23.1653 73.7781 23.1748C73.7544 23.1842 73.7329 23.1983 73.7148 23.2162C73.6968 23.2342 73.6825 23.2556 73.673 23.2791C73.6635 23.3027 73.6588 23.3279 73.6593 23.3533C73.6593 25.8881 75.931 27.8465 79.9208 27.8465C83.4128 27.8465 85.9617 26.5231 85.9617 23.437C85.9617 20.3508 83.4947 19.936 81.0298 19.551L81.0272 19.5489ZM94.9081 19.5489L92.6086 19.1896C91.2512 18.9699 90.4194 18.5295 90.4194 17.4823C90.4194 16.3791 91.195 15.4988 93.4125 15.4988C95.9052 15.4988 96.8489 16.6825 96.8489 17.9248C96.8489 18.0357 96.9324 18.1168 97.0416 18.1168H99.2849C99.3973 18.1168 99.4786 18.0336 99.4786 17.9248C99.4786 14.9746 96.8184 13.4316 93.4099 13.4316C90.9713 13.4316 87.787 14.5902 87.787 17.4823C87.787 19.7414 89.2542 20.8718 91.4439 21.2034L94.6592 21.6993C96.2944 21.9472 97.291 22.3872 97.291 23.6295C97.291 25.0078 96.1541 25.7239 93.7995 25.7239C91.3068 25.7239 90.1699 24.4564 90.1699 23.3533C90.1705 23.3279 90.1659 23.3026 90.1564 23.279C90.1469 23.2554 90.1327 23.234 90.1146 23.2161C90.0965 23.1981 90.075 23.184 90.0513 23.1746C90.0276 23.1652 90.0022 23.1607 89.9767 23.1613H87.7334C87.7079 23.1607 87.6826 23.1653 87.6589 23.1748C87.6352 23.1842 87.6137 23.1983 87.5957 23.2162C87.5776 23.2342 87.5634 23.2556 87.5539 23.2791C87.5443 23.3027 87.5397 23.3279 87.5402 23.3533C87.5402 25.8881 89.8113 27.8465 93.8011 27.8465C97.2936 27.8465 99.842 26.5231 99.842 23.437C99.842 20.3508 97.3756 19.936 94.9102 19.551L94.9081 19.5489ZM48.8865 17.6183C48.7216 17.5351 48.7216 17.3986 48.8865 17.3149C50.6598 16.5156 51.4354 15.028 51.4354 13.4295C51.4076 10.9501 49.9115 8.27611 45.7558 8.27611H37.2227C37.1972 8.27554 37.1718 8.28013 37.1481 8.2896C37.1245 8.29908 37.103 8.31325 37.0849 8.33124C37.0669 8.34924 37.0528 8.3707 37.0433 8.39431C37.0339 8.41792 37.0293 8.44319 37.03 8.4686V27.3726C37.03 27.484 37.114 27.5651 37.2232 27.5651H45.9517C49.9982 27.5651 51.8524 24.9188 51.8524 22.3286C51.8524 20.4261 51.2417 18.6351 48.8865 17.6156V17.6183ZM39.6324 10.563C39.6324 10.4521 39.7165 10.371 39.8257 10.371H45.2554C47.7481 10.371 48.8009 11.6662 48.8009 13.7328C48.8009 15.7995 47.611 16.5433 45.5331 16.5433H39.8246C39.7991 16.544 39.7737 16.5394 39.7499 16.53C39.7262 16.5206 39.7046 16.5064 39.6865 16.4884C39.6685 16.4704 39.6543 16.4489 39.6448 16.4253C39.6353 16.4016 39.6307 16.3763 39.6314 16.3508V10.563H39.6324ZM45.5326 25.4179H39.7973C39.7718 25.4185 39.7463 25.414 39.7226 25.4045C39.6989 25.3951 39.6773 25.3809 39.6592 25.3629C39.6412 25.3449 39.6269 25.3234 39.6175 25.2998C39.608 25.2761 39.6034 25.2508 39.6041 25.2254V18.8857C39.6041 18.7748 39.6881 18.6937 39.7973 18.6937H45.7259C48.081 18.6937 49.2457 19.9052 49.2457 22.111C49.2457 24.3168 47.7502 25.4179 45.5326 25.4179ZM56.6745 8.27611H54.0678C54.0424 8.27604 54.0173 8.28097 53.9938 8.29062C53.9703 8.30027 53.949 8.31445 53.931 8.33234C53.9131 8.35022 53.8988 8.37147 53.8891 8.39486C53.8795 8.41824 53.8745 8.44331 53.8746 8.4686V11.2257C53.8746 11.3319 53.9607 11.4182 54.0678 11.4182H56.6745C56.7257 11.4182 56.7749 11.398 56.8111 11.3619C56.8474 11.3258 56.8677 11.2768 56.8677 11.2257V8.4686C56.8677 8.41755 56.8474 8.36859 56.8111 8.33249C56.7749 8.29639 56.7257 8.27611 56.6745 8.27611ZM56.5059 13.7051H54.2605C54.2093 13.7051 54.1601 13.7254 54.1239 13.7615C54.0877 13.7976 54.0673 13.8466 54.0673 13.8976V27.3757C54.0673 27.4819 54.1539 27.5677 54.2605 27.5677H56.5059C56.5313 27.5678 56.5564 27.5629 56.5799 27.5533C56.6034 27.5436 56.6247 27.5295 56.6427 27.5117C56.6607 27.4939 56.675 27.4727 56.6848 27.4494C56.6946 27.426 56.6996 27.401 56.6997 27.3757V13.8976C56.6997 13.8723 56.6947 13.8472 56.6849 13.8238C56.6752 13.8004 56.6609 13.7792 56.6429 13.7613C56.6249 13.7434 56.6035 13.7293 56.58 13.7196C56.5565 13.71 56.5314 13.7051 56.5059 13.7051ZM108.014 13.4295C103.803 13.4295 101.338 16.24 101.338 20.6495C101.338 25.0585 103.805 27.8413 108.014 27.8413C111.173 27.8413 113.612 26.2145 114.276 23.6797C114.304 23.5688 114.192 23.46 114.082 23.46H111.7C111.588 23.46 111.534 23.5432 111.478 23.652C110.84 25.0031 109.954 25.6909 108.014 25.6909C105.382 25.6909 104.108 23.9836 104.108 21.6407C104.108 21.5853 104.164 21.5042 104.245 21.5042H114.525C114.551 21.5048 114.576 21.5002 114.6 21.4907C114.624 21.4812 114.645 21.4671 114.663 21.4491C114.681 21.4311 114.695 21.4097 114.705 21.386C114.714 21.3624 114.719 21.3371 114.719 21.3117V20.6516C114.719 16.4623 112.391 13.4316 108.014 13.4316V13.4295ZM111.672 19.5463H104.301C104.275 19.547 104.25 19.5424 104.226 19.533C104.202 19.5235 104.181 19.5094 104.163 19.4914C104.145 19.4733 104.131 19.4519 104.121 19.4282C104.112 19.4046 104.107 19.3793 104.108 19.3538C104.136 17.4237 105.16 15.5516 107.987 15.5516C110.812 15.5516 111.837 17.4263 111.865 19.3544C111.865 19.4652 111.781 19.5463 111.672 19.5463Z" fill="black"/>
</g>
<defs>
<clipPath id="clip0_25_28">
<rect width="115" height="34" fill="white"/>
</clipPath>
</defs>
</svg>
