<svg width="32" height="32" viewBox="0 0 32 32" fill="none" xmlns="http://www.w3.org/2000/svg">
<rect width="32" height="32" rx="9" fill="black" fill-opacity="0.08"/>
<path d="M18.5 23.5V16.8333C18.5 16.6123 18.4122 16.4004 18.2559 16.2441C18.0996 16.0878 17.8877 16 17.6667 16H14.3333C14.1123 16 13.9004 16.0878 13.7441 16.2441C13.5878 16.4004 13.5 16.6123 13.5 16.8333V23.5" stroke="#006063" stroke-linecap="round" stroke-linejoin="round"/>
<path d="M8.5 14.3332C8.49994 14.0908 8.55278 13.8512 8.65482 13.6313C8.75687 13.4114 8.90566 13.2164 9.09083 13.0599L14.9242 8.06073C15.225 7.80648 15.6061 7.66699 16 7.66699C16.3939 7.66699 16.775 7.80648 17.0758 8.06073L22.9092 13.0599C23.0943 13.2164 23.2431 13.4114 23.3452 13.6313C23.4472 13.8512 23.5001 14.0908 23.5 14.3332V21.8332C23.5 22.2753 23.3244 22.6992 23.0118 23.0117C22.6993 23.3243 22.2754 23.4999 21.8333 23.4999H10.1667C9.72464 23.4999 9.30072 23.3243 8.98816 23.0117C8.67559 22.6992 8.5 22.2753 8.5 21.8332V14.3332Z" stroke="#006063" stroke-linecap="round" stroke-linejoin="round"/>
</svg>
