<svg width="83" height="24" viewBox="0 0 83 24" fill="none" xmlns="http://www.w3.org/2000/svg">
<g clip-path="url(#clip0_1_511)">
<path d="M21.5899 13.8155L14.0558 6.48628C13.7231 6.16283 13.3888 5.83717 12.7225 5.83717H6.05294C5.87629 5.83678 5.70697 5.76829 5.58199 5.64666C5.457 5.52504 5.38651 5.36016 5.38591 5.18806V0.649477C5.38553 0.2928 5.08612 0 4.71774 0H0.0560971C0.0560971 0 0.0523071 0 0.0523071 0.00332308V0.649477C0.0523071 1.28898 0.383928 1.62055 0.720097 1.94622L8.72107 9.7296C9.05421 10.0538 9.38886 10.3794 10.0544 10.3794H16.7224C17.0889 10.3794 17.3898 10.6704 17.3898 11.0286V18.8119C17.3898 19.1686 17.0904 19.4614 16.7224 19.4614L3.86235 19.4581C3.43863 19.4581 3.22677 19.9554 3.52618 20.2464L7.38435 24H12.7191C13.3767 24 13.7196 23.6743 14.0524 23.3505L21.5864 16.0217C21.886 15.7287 22.0542 15.3321 22.0542 14.9186C22.0542 14.5051 21.886 14.1084 21.5864 13.8155H21.5899Z" fill="#006063"/>
<path d="M47.2024 9.47961C44.1624 9.47961 42.3838 11.4635 42.3838 14.5761C42.3838 17.6884 44.1643 19.6527 47.2024 19.6527C49.482 19.6527 51.2425 18.5044 51.7215 16.7151C51.7416 16.6368 51.6609 16.56 51.5824 16.56H49.8622C49.7814 16.56 49.7428 16.6187 49.7022 16.6955C49.2417 17.6492 48.6031 18.1348 47.2024 18.1348C45.3025 18.1348 44.383 16.9296 44.383 15.2758C44.383 15.2367 44.4232 15.1794 44.4819 15.1794H51.9015C51.92 15.1798 51.9383 15.1766 51.9554 15.1699C51.9725 15.1632 51.988 15.1532 52.0011 15.1405C52.0141 15.1278 52.0244 15.1127 52.0312 15.096C52.0381 15.0794 52.0414 15.0615 52.041 15.0436V14.5776C52.041 11.6204 50.3617 9.48109 47.2024 9.48109V9.47961ZM49.8421 13.7974H44.5225C44.504 13.7979 44.4857 13.7947 44.4686 13.788C44.4514 13.7813 44.4359 13.7713 44.4228 13.7586C44.4098 13.7459 44.3995 13.7307 44.3927 13.7141C44.3858 13.6974 44.3825 13.6795 44.383 13.6615C44.4031 12.2991 45.1429 10.9776 47.1823 10.9776C49.2216 10.9776 49.9614 12.3009 49.9815 13.6619C49.982 13.6798 49.9787 13.6977 49.9719 13.7144C49.965 13.731 49.9548 13.7462 49.9417 13.7589C49.9287 13.7715 49.9131 13.7815 49.896 13.7881C49.8788 13.7948 49.8605 13.7979 49.8421 13.7974ZM58.4805 13.7992L56.8213 13.5456C55.8412 13.3905 55.2409 13.0796 55.2409 12.3404C55.2409 11.5617 55.801 10.9403 57.4015 10.9403C59.2006 10.9403 59.8813 11.7759 59.8813 12.6528C59.8813 12.7311 59.9415 12.7883 60.0207 12.7883H61.6398C61.6582 12.7887 61.6766 12.7856 61.6937 12.7789C61.7108 12.7723 61.7264 12.7623 61.7395 12.7497C61.7525 12.737 61.7628 12.7219 61.7697 12.7052C61.7767 12.6886 61.78 12.6707 61.7797 12.6528C61.7797 10.5703 59.8593 9.48109 57.3996 9.48109C55.6392 9.48109 53.3413 10.2989 53.3413 12.3404C53.3413 13.9351 54.4002 14.733 55.9807 14.9671L58.3009 15.3172C59.4811 15.4922 60.2008 15.8027 60.2008 16.6796C60.2008 17.6525 59.3802 18.158 57.6804 18.158C55.8814 18.158 55.0608 17.2634 55.0608 16.4847C55.0613 16.4667 55.058 16.4489 55.0512 16.4322C55.0443 16.4155 55.0341 16.4004 55.021 16.3877C55.008 16.375 54.9924 16.3651 54.9753 16.3584C54.9581 16.3518 54.9398 16.3486 54.9214 16.3492H53.3023C53.2839 16.3488 53.2656 16.352 53.2485 16.3586C53.2314 16.3653 53.2159 16.3753 53.2029 16.3879C53.1899 16.4006 53.1796 16.4157 53.1727 16.4323C53.1658 16.4489 53.1625 16.4667 53.1628 16.4847C53.1628 18.274 54.8024 19.6564 57.682 19.6564C60.2023 19.6564 62.0419 18.7222 62.0419 16.5437C62.0419 14.3653 60.2614 14.0725 58.4824 13.8007L58.4805 13.7992ZM68.4989 13.7992L66.8393 13.5456C65.8595 13.3905 65.2592 13.0796 65.2592 12.3404C65.2592 11.5617 65.819 10.9403 67.4195 10.9403C69.2186 10.9403 69.8996 11.7759 69.8996 12.6528C69.8996 12.7311 69.9599 12.7883 70.0387 12.7883H71.6578C71.7389 12.7883 71.7977 12.7296 71.7977 12.6528C71.7977 10.5703 69.8777 9.48109 67.4176 9.48109C65.6575 9.48109 63.3593 10.2989 63.3593 12.3404C63.3593 13.9351 64.4182 14.733 65.9986 14.9671L68.3192 15.3172C69.4994 15.4922 70.2188 15.8027 70.2188 16.6796C70.2188 17.6525 69.3982 18.158 67.6988 18.158C65.8997 18.158 65.0792 17.2634 65.0792 16.4847C65.0796 16.4667 65.0763 16.4489 65.0694 16.4322C65.0626 16.4156 65.0523 16.4005 65.0393 16.3878C65.0262 16.3751 65.0107 16.3652 64.9936 16.3585C64.9765 16.3519 64.9581 16.3487 64.9397 16.3492H63.3207C63.3023 16.3488 63.284 16.352 63.2669 16.3586C63.2498 16.3653 63.2343 16.3753 63.2213 16.3879C63.2082 16.4006 63.198 16.4157 63.1911 16.4323C63.1842 16.4489 63.1808 16.4667 63.1812 16.4847C63.1812 18.274 64.8203 19.6564 67.7 19.6564C70.2207 19.6564 72.0599 18.7222 72.0599 16.5437C72.0599 14.3653 70.2798 14.0725 68.5004 13.8007L68.4989 13.7992ZM35.2833 12.4364C35.1643 12.3777 35.1643 12.2813 35.2833 12.2223C36.5632 11.6581 37.123 10.608 37.123 9.47961C37.1029 7.72946 36.0231 5.84195 33.0238 5.84195H26.8651C26.8467 5.84155 26.8284 5.84479 26.8113 5.85148C26.7942 5.85817 26.7787 5.86817 26.7657 5.88087C26.7527 5.89357 26.7424 5.90872 26.7356 5.92539C26.7288 5.94205 26.7255 5.95989 26.726 5.97783V19.3218C26.726 19.4005 26.7866 19.4577 26.8655 19.4577H33.1651C36.0857 19.4577 37.4239 17.5898 37.4239 15.7613C37.4239 14.4184 36.9831 13.1542 35.2833 12.4346V12.4364ZM28.6043 7.45623C28.6043 7.37795 28.6649 7.32072 28.7438 7.32072H32.6626C34.4617 7.32072 35.2216 8.23494 35.2216 9.69377C35.2216 11.1526 34.3628 11.6776 32.8631 11.6776H28.743C28.7246 11.6781 28.7062 11.6749 28.6891 11.6682C28.672 11.6616 28.6564 11.6516 28.6433 11.6389C28.6303 11.6262 28.62 11.611 28.6132 11.5943C28.6064 11.5776 28.6031 11.5597 28.6035 11.5418V7.45623H28.6043ZM32.8627 17.942H28.7233C28.7049 17.9425 28.6865 17.9393 28.6694 17.9326C28.6522 17.9259 28.6367 17.9159 28.6236 17.9032C28.6106 17.8905 28.6003 17.8754 28.5935 17.8587C28.5867 17.842 28.5834 17.8241 28.5838 17.8061V13.3311C28.5838 13.2528 28.6445 13.1956 28.7233 13.1956H33.0022C34.702 13.1956 35.5426 14.0507 35.5426 15.6077C35.5426 17.1648 34.4632 17.942 32.8627 17.942ZM40.9042 5.84195H39.0229C39.0046 5.8419 38.9864 5.84539 38.9694 5.8522C38.9525 5.85901 38.9371 5.86901 38.9242 5.88164C38.9112 5.89427 38.9009 5.90927 38.8939 5.92577C38.8869 5.94228 38.8834 5.95997 38.8834 5.97783V7.92405C38.8834 7.999 38.9456 8.05992 39.0229 8.05992H40.9042C40.9412 8.05992 40.9767 8.04561 41.0028 8.02012C41.029 7.99464 41.0437 7.96008 41.0437 7.92405V5.97783C41.0437 5.94179 41.029 5.90723 41.0028 5.88175C40.9767 5.85627 40.9412 5.84195 40.9042 5.84195ZM40.7826 9.6742H39.162C39.125 9.6742 39.0895 9.68851 39.0634 9.714C39.0372 9.73948 39.0225 9.77404 39.0225 9.81008V19.324C39.0225 19.399 39.085 19.4596 39.162 19.4596H40.7826C40.8009 19.4596 40.819 19.4561 40.836 19.4494C40.8529 19.4426 40.8683 19.4326 40.8813 19.42C40.8943 19.4074 40.9046 19.3925 40.9116 19.376C40.9187 19.3595 40.9224 19.3419 40.9224 19.324V9.81008C40.9224 9.7922 40.9188 9.7745 40.9118 9.75799C40.9047 9.74148 40.8944 9.72649 40.8814 9.71387C40.8684 9.70124 40.853 9.69124 40.836 9.68444C40.8191 9.67763 40.8009 9.67415 40.7826 9.6742ZM77.9582 9.47961C74.9187 9.47961 73.1393 11.4635 73.1393 14.5761C73.1393 17.6884 74.9198 19.6527 77.9582 19.6527C80.2379 19.6527 81.9983 18.5044 82.4774 16.7151C82.4975 16.6368 82.4167 16.56 82.3375 16.56H80.618C80.5373 16.56 80.4982 16.6187 80.4581 16.6955C79.9976 17.6492 79.3582 18.1348 77.9582 18.1348C76.0583 18.1348 75.1389 16.9296 75.1389 15.2758C75.1389 15.2367 75.179 15.1794 75.2378 15.1794H82.6574C82.6758 15.1798 82.6941 15.1766 82.7112 15.1699C82.7284 15.1632 82.7439 15.1532 82.7569 15.1405C82.77 15.1278 82.7802 15.1127 82.7871 15.096C82.7939 15.0794 82.7973 15.0615 82.7969 15.0436V14.5776C82.7969 11.6204 81.1172 9.48109 77.9582 9.48109V9.47961ZM80.5979 13.7974H75.278C75.2595 13.7979 75.2412 13.7947 75.2241 13.788C75.207 13.7813 75.1914 13.7713 75.1784 13.7586C75.1654 13.7459 75.1552 13.7307 75.1484 13.714C75.1416 13.6973 75.1384 13.6795 75.1389 13.6615C75.159 12.2991 75.8984 10.9776 77.9381 10.9776C79.9775 10.9776 80.7169 12.3009 80.7374 13.6619C80.7374 13.7402 80.6768 13.7974 80.5979 13.7974Z" fill="black"/>
</g>
<defs>
<clipPath id="clip0_1_511">
<rect width="83" height="24" fill="white"/>
</clipPath>
</defs>
</svg>
