<svg width="50" height="48" viewBox="0 0 50 48" fill="none" xmlns="http://www.w3.org/2000/svg">
<path d="M24.0474 0.984279C24.3436 0.0564141 25.6564 0.0564141 25.9526 0.984279L31.0642 16.9971C31.1966 17.4116 31.5818 17.693 32.0169 17.693H48.5955C49.56 17.693 49.9655 18.9236 49.1901 19.497L35.7474 29.4381C35.4031 29.6927 35.2592 30.1383 35.3894 30.5462L40.5168 46.6086C40.8119 47.5331 39.7498 48.2938 38.9696 47.7168L25.5946 37.8257C25.2413 37.5644 24.7587 37.5644 24.4054 37.8257L11.0304 47.7168C10.2502 48.2938 9.18808 47.5331 9.48318 46.6086L14.6106 30.5462C14.7408 30.1383 14.5969 29.6927 14.2526 29.4381L0.809887 19.497C0.0344572 18.9236 0.440046 17.693 1.40448 17.693H17.9831C18.4182 17.693 18.8034 17.4116 18.9358 16.9971L24.0474 0.984279Z" fill="#006063"/>
</svg>
