<svg width="18" height="19" viewBox="0 0 18 19" fill="none" xmlns="http://www.w3.org/2000/svg">
<path opacity="0.4" d="M12.1425 2H5.8575C3.1275 2 1.5 3.6275 1.5 6.3575V12.635C1.5 15.3725 3.1275 17 5.8575 17H12.135C14.865 17 16.4925 15.3725 16.4925 12.6425V6.3575C16.5 3.6275 14.8725 2 12.1425 2Z" fill="#4CC800"/>
<path d="M7.93499 12.1852C7.78499 12.1852 7.64249 12.1252 7.53749 12.0202L5.41499 9.8977C5.19749 9.6802 5.19749 9.3202 5.41499 9.1027C5.63249 8.8852 5.99249 8.8852 6.20999 9.1027L7.93499 10.8277L11.79 6.9727C12.0075 6.7552 12.3675 6.7552 12.585 6.9727C12.8025 7.1902 12.8025 7.55019 12.585 7.76769L8.33249 12.0202C8.22749 12.1252 8.08499 12.1852 7.93499 12.1852Z" fill="#4CC800"/>
</svg>
